<?xml version="1.0" encoding="UTF-8" standalone="no"?>
<svg
   width="189"
   height="33"
   viewBox="0 0 189 33"
   fill="none"
   version="1.1"
   id="svg47"
   sodipodi:docname="logo.svg"
   inkscape:version="1.4.2 (f4327f4, 2025-05-13)"
   xmlns:inkscape="http://www.inkscape.org/namespaces/inkscape"
   xmlns:sodipodi="http://sodipodi.sourceforge.net/DTD/sodipodi-0.dtd"
   xmlns="http://www.w3.org/2000/svg"
   xmlns:svg="http://www.w3.org/2000/svg">
  <sodipodi:namedview
     id="namedview47"
     pagecolor="#ffffff"
     bordercolor="#000000"
     borderopacity="0.25"
     inkscape:showpageshadow="2"
     inkscape:pageopacity="0.0"
     inkscape:pagecheckerboard="0"
     inkscape:deskcolor="#d1d1d1"
     inkscape:zoom="6.7042798"
     inkscape:cx="93.820667"
     inkscape:cy="46.761175"
     inkscape:window-width="1920"
     inkscape:window-height="991"
     inkscape:window-x="-9"
     inkscape:window-y="-9"
     inkscape:window-maximized="1"
     inkscape:current-layer="svg47" />
  <g
     clip-path="url(#clip0_25_10325)"
     id="g43"
     transform="translate(1.7298132,-13.989094)">
    <path
       d="m 12.2714,42.5431 21.0259,0.025 -0.0212,1.9238 -21.0259,-0.025 z"
       fill="#172e7a"
       id="path1" />
    <path
       d="M 33.2864,15 C 41.4128,15 48,21.5875 48,29.7136 c 0,8.1261 -6.5872,14.7136 -14.7136,14.7136 -8.126,0 -14.7135,-6.5875 -14.7135,-14.7136 C 18.5729,21.5875 25.1604,15 33.2864,15 Z"
       fill="#0362e2"
       id="path2" />
    <path
       d="m 18.5576,30.5984 c 0,1.3232 -0.2605,2.6333 -0.7669,3.8558 -0.5064,1.2224 -1.2485,2.3331 -2.1841,3.2687 -0.9356,0.9357 -2.0464,1.6778 -3.2688,2.1841 -1.2224,0.5064 -2.53263,0.767 -3.85581,0.767 l 0.80013,3.1024 c 1.81068,0 2.80368,0.2541 4.47658,-0.4388 1.673,-0.693 3.193,-1.7087 4.4734,-2.9891 1.2804,-1.2804 2.2961,-2.8004 2.9891,-4.4734 0.6929,-1.6729 1.0496,-3.4659 1.0496,-5.2767 z"
       fill="#172e7a"
       id="path3" />
    <path
       d="m 18.5602,29.5507 h 3.711 v 1.237 h -3.711 z"
       fill="#172e7a"
       id="path4" />
    <g
       filter="url(#filter0_d_25_10325)"
       id="g5">
      <path
         d="M 18.8813,22.0167 H 17.89 c -5.5663,0 -10.07872,4.5124 -10.07872,10.0788 0,5.5663 4.51242,10.0787 10.07872,10.0787 h 0.9913 c 5.5664,0 10.0788,-4.5124 10.0788,-10.0787 0,-5.5664 -4.5124,-10.0788 -10.0788,-10.0788 z"
         fill="#d9d9d9"
         id="path5" />
    </g>
    <path
       d="m 14.4867,22.6846 c 0.745,-0.4352 1.6013,-0.6422 2.4629,-0.5952 l 3.5738,0.1951 c 1.2616,0.0688 2.4329,0.6759 3.2164,1.6671 l 2.7232,3.4451 c 0.4775,0.604 0.7883,1.3225 0.9016,2.084 l 0.8344,5.6092 c 0.1064,0.7148 0.3869,1.3926 0.817,1.9735 l 4.1972,5.6689 c 0.1615,0.2181 0.0058,0.527 -0.2655,0.527 H 14.0535 c -1.0791,0 -2.0398,-0.6835 -2.3935,-1.703 L 8.36715,32.0652 C 8.02283,31.0726 8.04447,29.9897 8.42823,29.0116 l 0.86053,-2.1929 c 0.36179,-0.922 1.02364,-1.6952 1.87884,-2.1948 z"
       fill="#1c8df2"
       id="path6" />
    <path
       d="m 18.4172,20.9792 c -2.9418,-0.0857 -5.8011,0.9785 -7.9709,2.9666 -2.1699,1.9881 -3.4795,4.7437 -3.65083,7.6817 l 1.93984,0.113 c 0.14191,-2.4332 1.22655,-4.7154 3.02369,-6.362 1.7971,-1.6466 4.1652,-2.528 6.6015,-2.457 2.4364,0.071 4.7492,1.0887 6.4474,2.8372 1.6983,1.7484 2.6482,4.0898 2.6482,6.5272 h 1.9432 c 0,-2.9429 -1.147,-5.7701 -3.1975,-7.8811 -2.0504,-2.1111 -4.8429,-3.3399 -7.7846,-3.4256 z"
       fill="#1c8df2"
       id="path7" />
    <path
       d="M 29.4008,32.1508 H 27.452 v 0.9094 h 1.9488 z"
       fill="#1c8df2"
       id="path8" />
    <path
       d="m 29.4003,31.7615 h -1.9488 v 2.7283 h 1.9488 z"
       fill="#1c8df2"
       id="path9" />
    <path
       d="m 34.2059,44.4594 c -0.3055,0.0212 -0.612,0.0326 -0.919,0.0341 H 16.5501 l -0.0113,-1.9488 17.0653,-0.0291 z"
       fill="#1c8df2"
       id="path10" />
    <g
       filter="url(#filter1_d_25_10325)"
       id="g11">
      <path
         d="M 7.20542,29.8369 H 6.65466 c -3.49796,0 -6.333615,2.8357 -6.333615,6.3336 0,3.498 2.835655,6.3337 6.333615,6.3337 h 0.55076 c 3.49798,0 6.33358,-2.8357 6.33358,-6.3337 0,-3.4979 -2.8356,-6.3336 -6.33358,-6.3336 z"
         fill="#d9d9d9"
         id="path11" />
    </g>
    <path
       d="m 6.66498,42.9347 h 9.61412 v 1.5774 H 6.66498 Z"
       fill="#31b0ff"
       id="path12" />
    <path
       d="m 29.3827,34.2946 c 0,1.2051 0.2374,2.3985 0.6986,3.512 0.4612,1.1135 1.1372,2.1253 1.9894,2.9774 0.8522,0.8522 1.8639,1.5283 2.9774,1.9895 1.1017,0.4563 2.2817,0.6933 3.4738,0.6983 -1.4141,0.5658 -2.9081,0.9012 -4.4251,0.9947 -1.264,-0.5546 -2.4143,-1.3402 -3.3913,-2.3172 -1.0314,-1.0316 -1.8497,-2.2561 -2.4079,-3.6038 -0.5583,-1.3477 -0.8456,-2.7922 -0.8456,-4.2509 z"
       fill="#1c8df2"
       id="path13" />
    <path
       d="M 0.935238,33.9414 C 1.31967,31.8503 3.14253,30.332 5.26866,30.332 h 2.15061 c 1.06329,0 2.09064,0.3845 2.89263,1.0826 l 1.1801,1.0271 c 0.7044,0.6131 1.1958,1.4341 1.4033,2.3447 l 0.6801,2.9851 c 0.1125,0.4933 0.309,0.9636 0.5811,1.3903 l 2.5585,4.0121 c 0.1443,0.2264 -0.0272,0.5212 -0.2953,0.5077 L 5.06685,43.1092 C 3.03272,43.0066 1.33396,41.5232 0.958323,39.5214 L 0.579399,37.5025 C 0.479662,36.9708 0.478662,36.4253 0.576452,35.8932 Z"
       fill="#31b0ff"
       id="path14" />
    <path
       d="M 9.68347,29.6463 C 8.27163,29.0615 6.71805,28.9084 5.21921,29.2066 c -1.49878,0.2981 -2.87558,1.034 -3.95617,2.1145 -1.080586,1.0806 -1.816461,2.4574 -2.11456,3.9562 -0.29815,1.4989 -0.145127,3.0524 0.439668,4.4643 0.584795,1.4118 1.575162,2.6186 2.845762,3.4676 1.27067,0.849 2.7645,1.3021 4.29271,1.3021 v -1.9457 c -1.14334,0 -2.26103,-0.3391 -3.21167,-0.9742 C 2.5643,40.9562 1.82336,40.0533 1.38581,38.997 0.948312,37.9407 0.833778,36.7783 1.05684,35.657 1.2799,34.5355 1.83048,33.5055 2.63895,32.6971 3.44742,31.8886 4.47744,31.338 5.59886,31.1149 c 1.12136,-0.223 2.28366,-0.1085 3.33994,0.329 1.05634,0.4376 1.9592,1.1785 2.5944,2.1292 0.6352,0.9506 0.9743,2.0683 0.9743,3.2116 h 1.9457 c 0,-1.5281 -0.4531,-3.022 -1.3021,-4.2927 -0.849,-1.2706 -2.0558,-2.261 -3.46763,-2.8457 z"
       fill="#31b0ff"
       id="path15" />
    <path
       d="m 14.4606,36.6985 h -1.9488 v 0.6496 h 1.9488 z"
       fill="#31b0ff"
       id="path16" />
    <path
       d="m 14.456,37.2487 c 0,0.9489 0.1866,1.8886 0.5492,2.7654 0.3625,0.8767 0.894,1.6734 1.564,2.3444 0.67,0.671 1.4654,1.2034 2.3407,1.5665 0.8754,0.3632 1.8137,0.5501 2.7611,0.5501 l -0.0051,0.0199 -2e-4,-8e-4 -6.7,0.0138 c -0.0938,-0.0869 -0.1861,-0.1757 -0.2766,-0.2663 -0.9169,-0.9184 -1.6442,-2.0086 -2.1404,-3.2085 -0.4962,-1.1998 -0.7516,-2.4858 -0.7516,-3.7845 z"
       fill="#31b0ff"
       id="path17" />
    <path
       d="m 85.2977,38.2673 c -3.3105,0 -5.9942,-2.6832 -5.9942,-5.9932 0,-3.3112 2.6837,-5.9944 5.9942,-5.9944 3.3104,0 5.994,2.6832 5.994,5.9944 0,3.31 -2.6836,5.9932 -5.994,5.9932 z m 0,-10.7426 c -2.6227,0 -4.7486,2.1265 -4.7486,4.7494 0,2.6217 2.1259,4.7482 4.7486,4.7482 2.6225,0 4.7484,-2.1265 4.7484,-4.7482 0,-2.6229 -2.1259,-4.7494 -4.7484,-4.7494 z"
       fill="#c7c7c7"
       id="path18" />
    <path
       d="m 68.844,26.6166 c -0.986,-0.8368 -2.1967,-1.3645 -3.481,-1.5179 -1.2844,-0.1534 -2.5853,0.0749 -3.7405,0.6569 -1.1553,0.5821 -2.1135,1.4914 -2.7552,2.6144 -0.6417,1.1231 -0.9383,2.4092 -0.8529,3.7001 0.0853,1.2909 0.5491,2.5274 1.3331,3.5563 0.7841,1.0289 1.8539,1.8041 3.0757,2.228 1.2218,0.4239 2.5415,0.4794 3.7945,0.1582 1.2529,-0.3212 2.3835,-1.0035 3.2506,-1.9635 l -0.9498,-0.8586 c -0.6984,0.7728 -1.6093,1.3235 -2.6186,1.5819 -1.0093,0.2596 -2.0725,0.215 -3.0568,-0.1268 -0.9842,-0.3417 -1.8459,-0.9661 -2.4776,-1.7957 -0.6317,-0.8284 -1.0052,-1.8246 -1.074,-2.8644 -0.0688,-1.0397 0.1702,-2.0758 0.6871,-2.9815 0.517,-0.9045 1.2889,-1.6363 2.2196,-2.1048 0.9305,-0.4685 1.9786,-0.6533 3.0131,-0.5301 1.0347,0.1244 2.01,0.5494 2.8043,1.2233 z"
       fill="#c7c7c7"
       id="path19" />
    <path
       d="m 123.602,27.2131 h -1.285 v 10.9491 h 1.285 z"
       fill="#c7c7c7"
       id="path20" />
    <path
       d="m 123.754,25.3811 c 0,0.4463 -0.362,0.808 -0.808,0.808 -0.446,0 -0.808,-0.3617 -0.808,-0.808 0,-0.4462 0.362,-0.8079 0.808,-0.8079 0.446,0 0.808,0.3617 0.808,0.8079 z"
       fill="#c7c7c7"
       id="path21" />
    <path
       d="m 163.103,27.207 h -1.285 v 10.9522 h 1.285 z"
       fill="#c7c7c7"
       id="path22" />
    <path
       d="m 163.253,25.3811 c 0,0.4463 -0.362,0.808 -0.808,0.808 -0.446,0 -0.808,-0.3617 -0.808,-0.808 0,-0.4462 0.362,-0.8079 0.808,-0.8079 0.446,0 0.808,0.3617 0.808,0.8079 z"
       fill="#c7c7c7"
       id="path23" />
    <path
       d="m 105.114,32.1594 c 0,1.5989 -0.635,3.1325 -1.766,4.264 -1.131,1.1303 -2.665,1.7667 -4.2641,1.7667 -1.5993,0 -3.1331,-0.6364 -4.264,-1.7667 -1.1309,-1.1315 -1.7662,-2.6651 -1.7662,-4.264 h 1.2833 c 0,1.2583 0.5002,2.4659 1.3903,3.3559 0.8902,0.8912 2.0976,1.3911 3.3566,1.3911 1.2591,0 2.4661,-0.4999 3.3561,-1.3911 0.891,-0.89 1.391,-2.0976 1.391,-3.3559 z"
       fill="#c7c7c7"
       id="path24" />
    <path
       d="m 103.829,27.2867 h 1.285 v 10.6521 h -1.285 z"
       fill="#c7c7c7"
       id="path25" />
    <path
       d="m 93.0529,27.2168 h 1.2849 v 4.9426 h -1.2849 z"
       fill="#c7c7c7"
       id="path26" />
    <path
       d="m 71.3878,33.2957 c 0,0.6484 0.1277,1.2908 0.3759,1.8898 0.248,0.599 0.6117,1.1436 1.0703,1.6013 0.4585,0.4588 1.0027,0.8223 1.6018,1.0711 0.599,0.2475 1.241,0.3756 1.8894,0.3756 v -1.2861 c -0.4795,0 -0.9544,-0.0942 -1.3974,-0.2778 -0.443,-0.1835 -0.8456,-0.4528 -1.1847,-0.7909 -0.339,-0.3394 -0.608,-0.7427 -0.7915,-1.1847 -0.1835,-0.4432 -0.278,-0.9189 -0.278,-1.3983 z"
       fill="#c7c7c7"
       id="path27" />
    <path
       d="m 71.3878,25.0527 h 1.2849 v 8.2587 h -1.2849 z"
       fill="#c7c7c7"
       id="path28" />
    <path
       d="m 78.5174,36.9474 v 1.2849 h -2.2001 v -1.2849 z"
       fill="#c7c7c7"
       id="path29" />
    <path
       d="m 112.992,38.2673 c -3.311,0 -5.994,-2.6832 -5.994,-5.9932 0,-3.3112 2.683,-5.9944 5.994,-5.9944 3.31,0 5.994,2.6832 5.994,5.9944 0,3.31 -2.684,5.9932 -5.994,5.9932 z m 0,-10.6822 c -2.59,0 -4.689,2.0987 -4.689,4.689 0,2.5891 2.099,4.6878 4.689,4.6878 2.589,0 4.688,-2.0987 4.688,-4.6878 0,-2.5903 -2.099,-4.689 -4.688,-4.689 z"
       fill="#c7c7c7"
       id="path30" />
    <path
       d="m 117.681,22 h 1.285 v 15.8592 h -1.285 z"
       fill="#c7c7c7"
       id="path31" />
    <path
       d="m 147.193,38.0452 c -3.091,0.8284 -6.268,-1.0059 -7.097,-4.0973 -0.828,-3.0914 1.007,-6.2686 4.098,-7.097 3.091,-0.8284 6.268,1.0059 7.097,4.0973 0.828,3.0915 -1.006,6.2686 -4.098,7.097 z m -2.653,-9.9046 c -2.379,0.6376 -3.791,3.083 -3.153,5.4619 0.637,2.3789 3.082,3.7906 5.461,3.153 2.379,-0.6376 3.791,-3.083 3.153,-5.4607 -0.638,-2.3789 -3.083,-3.7906 -5.461,-3.1542 z"
       fill="#c7c7c7"
       id="path32" />
    <path
       d="m 150.16,26.8473 h 1.303 v 11.3706 h -1.303 z"
       fill="#c7c7c7"
       id="path33" />
    <path
       d="m 155.174,33.6532 c 0,0.6014 0.119,1.1967 0.348,1.7522 0.231,0.5555 0.568,1.0603 0.994,1.4865 0.425,0.4251 0.93,0.762 1.485,0.9927 0.556,0.2294 1.152,0.349 1.754,0.349 v -1.2994 c -0.432,0 -0.858,-0.0857 -1.256,-0.25 -0.399,-0.1654 -0.76,-0.4069 -1.065,-0.7112 -0.305,-0.3056 -0.546,-0.6666 -0.712,-1.0651 -0.164,-0.3973 -0.248,-0.8248 -0.248,-1.2547 z"
       fill="#c7c7c7"
       id="path34" />
    <path
       d="m 155.175,25.5901 h 1.3 V 33.67 h -1.3 z"
       fill="#c7c7c7"
       id="path35" />
    <path
       d="m 158.586,27.9847 v 1.3163 h -4.908 v -1.3163 z"
       fill="#c7c7c7"
       id="path36" />
    <path
       d="m 126.984,32.4734 c 0,-0.7391 0.146,-1.472 0.429,-2.1543 0.282,-0.6823 0.697,-1.303 1.22,-1.8259 0.522,-0.5229 1.143,-0.9371 1.826,-1.2197 0.682,-0.2837 1.414,-0.4287 2.154,-0.4287 0.739,0 1.471,0.145 2.153,0.4287 0.683,0.2826 1.304,0.6968 1.826,1.2197 0.523,0.5229 0.938,1.1436 1.221,1.8259 0.282,0.6823 0.428,1.4152 0.428,2.1543 h -1.306 c 0,-0.5676 -0.112,-1.1303 -0.329,-1.6544 -0.217,-0.5241 -0.536,-1.0011 -0.937,-1.402 -0.401,-0.4021 -0.878,-0.7197 -1.402,-0.9371 -0.525,-0.2173 -1.087,-0.3296 -1.654,-0.3296 -0.568,0 -1.13,0.1123 -1.655,0.3296 -0.524,0.2174 -1,0.535 -1.402,0.9371 -0.401,0.4009 -0.72,0.8779 -0.937,1.402 -0.217,0.5241 -0.329,1.0868 -0.329,1.6544 z"
       fill="#c7c7c7"
       id="path37" />
    <path
       d="m 126.987,27.3857 h 1.316 v 10.7729 h -1.316 z"
       fill="#c7c7c7"
       id="path38" />
    <path
       d="m 136.934,32.4734 h 1.304 v 5.6611 h -1.304 z"
       fill="#c7c7c7"
       id="path39" />
    <path
       d="m 165.229,27.7722 1.259,-0.3369 2.206,8.2321 -1.259,0.3369 z"
       fill="#c7c7c7"
       id="path40" />
    <path
       d="m 174.157,27.4341 1.259,0.3369 -2.205,8.2333 -1.26,-0.3381 z"
       fill="#c7c7c7"
       id="path41" />
    <path
       d="m 173.212,36.0079 c -0.173,0.6364 -0.55,1.1968 -1.072,1.5965 -0.523,0.3997 -1.165,0.6158 -1.823,0.6146 -0.658,-0.0024 -1.298,-0.2198 -1.82,-0.6219 -0.521,-0.4009 -0.896,-0.9636 -1.065,-1.6 l 1.262,-0.3369 c 0.097,0.3586 0.307,0.675 0.602,0.9008 0.293,0.227 0.653,0.3502 1.024,0.3502 0.37,0.0012 0.732,-0.1207 1.026,-0.3454 0.295,-0.2258 0.507,-0.5409 0.604,-0.8996 z"
       fill="#c7c7c7"
       id="path42" />
    <path
       d="m 181.919,26.8074 c 2.992,0.0181 5.412,2.4489 5.412,5.4462 v 1.0578 h -4.986 v -1.3175 l 3.917,0.0689 c -0.075,-0.8623 -0.36,-1.7051 -0.815,-2.3282 -0.6,-0.8188 -1.532,-1.332 -2.526,-1.5397 -0.993,-0.2077 -2.028,-0.0677 -2.93,0.3973 -0.903,0.4649 -1.618,1.2269 -2.025,2.1567 -0.407,0.9298 -0.482,1.9708 -0.211,2.9489 0.27,0.9794 0.868,1.8343 1.695,2.4236 0.826,0.5893 1.831,0.8756 2.844,0.8116 1.013,-0.0641 1.973,-0.4746 2.72,-1.163 l 0.877,0.9516 c -0.964,0.89 -2.206,1.4213 -3.516,1.5047 -1.309,0.0821 -2.608,-0.2886 -3.677,-1.0506 -1.069,-0.7608 -1.843,-1.8682 -2.192,-3.1325 -0.349,-1.2655 -0.252,-2.612 0.274,-3.8148 0.527,-1.2015 1.451,-2.1857 2.617,-2.787 0.786,-0.4046 1.65,-0.6195 2.522,-0.634 z"
       fill="#c7c7c7"
       id="path43" />
  </g>
  <defs
     id="defs47">
    <filter
       id="filter0_d_25_10325"
       x="-34.762901"
       y="-77.9832"
       width="276.59399"
       height="275.603"
       filterUnits="userSpaceOnUse"
       color-interpolation-filters="sRGB">
      <feFlood
         flood-opacity="0"
         result="BackgroundImageFix"
         id="feFlood43" />
      <feColorMatrix
         in="SourceAlpha"
         type="matrix"
         values="0 0 0 0 0 0 0 0 0 0 0 0 0 0 0 0 0 0 127 0"
         result="hardAlpha"
         id="feColorMatrix43" />
      <feOffset
         dx="85.1484"
         dy="27.7227"
         id="feOffset43" />
      <feGaussianBlur
         stdDeviation="63.8613"
         id="feGaussianBlur43" />
      <feComposite
         in2="hardAlpha"
         operator="out"
         id="feComposite43" />
      <feColorMatrix
         type="matrix"
         values="0 0 0 0 0 0 0 0 0 0 0 0 0 0 0 0 0 0 0.25 0"
         id="feColorMatrix44" />
      <feBlend
         mode="normal"
         in2="BackgroundImageFix"
         result="effect1_dropShadow_25_10325"
         id="feBlend44" />
      <feBlend
         mode="normal"
         in="SourceGraphic"
         in2="effect1_dropShadow_25_10325"
         result="shape"
         id="feBlend45" />
    </filter>
    <filter
       id="filter1_d_25_10325"
       x="-42.253201"
       y="-70.163002"
       width="268.66299"
       height="268.112"
       filterUnits="userSpaceOnUse"
       color-interpolation-filters="sRGB">
      <feFlood
         flood-opacity="0"
         result="BackgroundImageFix"
         id="feFlood45" />
      <feColorMatrix
         in="SourceAlpha"
         type="matrix"
         values="0 0 0 0 0 0 0 0 0 0 0 0 0 0 0 0 0 0 127 0"
         result="hardAlpha"
         id="feColorMatrix45" />
      <feOffset
         dx="85.1484"
         dy="27.7227"
         id="feOffset45" />
      <feGaussianBlur
         stdDeviation="63.8613"
         id="feGaussianBlur45" />
      <feComposite
         in2="hardAlpha"
         operator="out"
         id="feComposite45" />
      <feColorMatrix
         type="matrix"
         values="0 0 0 0 0 0 0 0 0 0 0 0 0 0 0 0 0 0 0.25 0"
         id="feColorMatrix46" />
      <feBlend
         mode="normal"
         in2="BackgroundImageFix"
         result="effect1_dropShadow_25_10325"
         id="feBlend46" />
      <feBlend
         mode="normal"
         in="SourceGraphic"
         in2="effect1_dropShadow_25_10325"
         result="shape"
         id="feBlend47" />
    </filter>
    <clipPath
       id="clip0_25_10325">
      <rect
         width="187"
         height="60"
         fill="#ffffff"
         id="rect47"
         x="0"
         y="0" />
    </clipPath>
  </defs>
  <ellipse
     style="fill:#31b0ff;fill-opacity:1;stroke-width:1.01815"
     id="path48"
     cx="8.0690498"
     cy="22.815758"
     rx="7.4952121"
     ry="7.2714744" />
</svg>
